<svg width="43" height="45" viewBox="0 0 43 45" fill="none" xmlns="http://www.w3.org/2000/svg">
<ellipse cx="24" cy="28" rx="17" ry="17" fill="#5BC9BC" fill-opacity="0.32"/>
<path d="M36.6812 8.19668C35.2608 6.78628 33.573 5.6738 31.7168 4.92452C29.8607 4.17524 27.8735 3.80426 25.8721 3.83334C22.1148 3.82395 18.5077 5.3075 15.8443 7.95762C13.1809 10.6077 11.6794 14.2074 11.67 17.9646C11.6606 21.7218 13.1441 25.3289 15.7942 27.9923C18.4444 30.6557 22.044 32.1573 25.8012 32.1667C26.6108 32.1804 27.4021 31.925 28.0508 31.4404C28.6995 30.9558 29.1689 30.2694 29.3854 29.4892C29.5234 28.9257 29.5219 28.3371 29.3812 27.7743C29.2405 27.2115 28.9648 26.6914 28.5779 26.2592C28.4884 26.1574 28.4301 26.032 28.4097 25.898C28.3893 25.764 28.4078 25.627 28.463 25.5032C28.5182 25.3794 28.6077 25.2741 28.721 25.1997C28.8343 25.1252 28.9665 25.0849 29.1021 25.0833H31.4396C33.6396 25.0936 35.762 24.2712 37.3807 22.7813C38.9994 21.2913 39.9945 19.2442 40.1662 17.0508C40.2189 15.4155 39.937 13.7865 39.3377 12.264C38.7384 10.7415 37.8345 9.3574 36.6812 8.19668ZM31.4962 22.25H29.1587C28.4761 22.2461 27.807 22.4404 27.2325 22.8093C26.6581 23.1782 26.2031 23.7059 25.9227 24.3283C25.6422 24.9507 25.5484 25.6411 25.6526 26.3157C25.7567 26.9904 26.0544 27.6204 26.5096 28.1292C26.5982 28.2186 26.6608 28.3304 26.6907 28.4527C26.7207 28.575 26.7168 28.7031 26.6795 28.8233C26.6087 29.1208 26.2829 29.305 25.8437 29.3333C24.2348 29.3127 22.6488 28.9498 21.1911 28.2686C19.7334 27.5874 18.4374 26.6037 17.3894 25.3828C16.3414 24.1619 15.5653 22.7318 15.1129 21.1878C14.6605 19.6437 14.542 18.0209 14.7654 16.4275C15.1694 13.7499 16.5073 11.3015 18.5424 9.51522C20.5776 7.72895 23.1789 6.71995 25.8862 6.66668H25.9995C27.6016 6.6457 29.1916 6.94577 30.6758 7.54918C32.16 8.15259 33.5083 9.04712 34.6412 10.18C35.5252 11.0646 36.2198 12.1199 36.6826 13.2817C37.1453 14.4435 37.3666 15.6874 37.3329 16.9375C37.1862 18.3868 36.5092 19.7309 35.4319 20.7114C34.3546 21.692 32.9529 22.2399 31.4962 22.25Z" fill="#2A636D"/>
<path d="M26 12.3333C27.1736 12.3333 28.125 11.3819 28.125 10.2083C28.125 9.03474 27.1736 8.08334 26 8.08334C24.8264 8.08334 23.875 9.03474 23.875 10.2083C23.875 11.3819 24.8264 12.3333 26 12.3333Z" fill="#2A636D"/>
<path d="M30.6041 11.2C30.2402 11.4102 29.9469 11.7235 29.761 12.1004C29.5752 12.4773 29.5053 12.9008 29.5602 13.3173C29.615 13.7339 29.7921 14.1249 30.0691 14.4409C30.3461 14.7569 30.7105 14.9836 31.1163 15.0925C31.5222 15.2014 31.9512 15.1875 32.3491 15.0526C32.7471 14.9177 33.0961 14.6679 33.3521 14.3347C33.6081 14.0015 33.7595 13.5999 33.7873 13.1806C33.8151 12.7613 33.718 12.3433 33.5082 11.9792C33.3688 11.7372 33.1831 11.5251 32.9616 11.355C32.7402 11.1848 32.4874 11.06 32.2176 10.9877C31.9479 10.9153 31.6666 10.8968 31.3897 10.9332C31.1128 10.9697 30.8459 11.0603 30.6041 11.2Z" fill="#2A636D"/>
<path d="M21.3958 11.2C21.0318 10.9903 20.6137 10.8931 20.1944 10.9209C19.7752 10.9487 19.3735 11.1002 19.0403 11.3562C18.7071 11.6122 18.4573 11.9612 18.3224 12.3591C18.1875 12.7571 18.1737 13.1861 18.2825 13.5919C18.3914 13.9977 18.6182 14.3622 18.9341 14.6392C19.2501 14.9162 19.6411 15.0933 20.0577 15.1481C20.4743 15.2029 20.8978 15.133 21.2746 14.9472C21.6515 14.7614 21.9648 14.468 22.175 14.1042C22.3147 13.8624 22.4054 13.5954 22.4418 13.3185C22.4782 13.0417 22.4597 12.7603 22.3874 12.4906C22.315 12.2209 22.1902 11.9681 22.0201 11.7466C21.8499 11.5252 21.6378 11.3394 21.3958 11.2Z" fill="#2A636D"/>
<path d="M17.7259 16.9517C17.3774 17.187 17.1065 17.5205 16.9476 17.9099C16.7887 18.2993 16.7489 18.7271 16.8332 19.1391C16.9176 19.5511 17.1223 19.9288 17.4215 20.2244C17.7206 20.52 18.1007 20.7202 18.5137 20.7996C18.9267 20.879 19.354 20.8341 19.7415 20.6705C20.1289 20.507 20.4591 20.2321 20.6903 19.8808C20.9214 19.5295 21.0431 19.1174 21.04 18.6969C21.0368 18.2763 20.909 17.8662 20.6726 17.5184C20.5173 17.2865 20.3175 17.0878 20.0849 16.9336C19.8523 16.7795 19.5915 16.673 19.3175 16.6203C19.0434 16.5676 18.7617 16.5697 18.4885 16.6266C18.2153 16.6835 17.9561 16.794 17.7259 16.9517Z" fill="#2A636D"/>
</svg>
