<svg width="12" height="8" viewBox="0 0 12 8" fill="none" xmlns="http://www.w3.org/2000/svg">
<path d="M5.53176 7.33352L0.191706 1.99337C0.068097 1.86985 -5.37624e-08 1.70498 -4.60778e-08 1.52917C-3.83932e-08 1.35337 0.068097 1.18849 0.191706 1.06498L0.584873 0.671718C0.841066 0.415818 1.25745 0.415818 1.51326 0.671718L5.99751 5.15598L10.4867 0.666743C10.6104 0.543232 10.7751 0.475037 10.9508 0.475037C11.1267 0.475037 11.2915 0.543232 11.4152 0.666743L11.8083 1.06001C11.9319 1.18362 12 1.3484 12 1.5242C12 1.7 11.9319 1.86488 11.8083 1.98839L6.46336 7.33352C6.33936 7.45732 6.1738 7.52532 5.9978 7.52493C5.82112 7.52532 5.65566 7.45732 5.53176 7.33352Z" fill="#357C88"/>
</svg>
