<svg width="38" height="46" viewBox="0 0 38 46" fill="none" xmlns="http://www.w3.org/2000/svg">
<ellipse cx="19" cy="29" rx="17" ry="17" fill="#5BC9BC" fill-opacity="0.32"/>
<path d="M23.75 1.58334H14.25V4.75001H23.75V1.58334ZM17.4167 22.1667H20.5833V12.6667H17.4167V22.1667ZM30.1308 11.7008L32.3792 9.45251C31.6983 8.64501 30.9542 7.88501 30.1467 7.22001L27.8983 9.46834C25.3766 7.43903 22.2369 6.33285 19 6.33334C11.1308 6.33334 4.75 12.7142 4.75 20.5833C4.75 28.4525 11.115 34.8333 19 34.8333C21.6827 34.8348 24.3112 34.0785 26.5828 32.6514C28.8544 31.2244 30.6768 29.1848 31.8399 26.7674C33.0031 24.3501 33.4598 21.6533 33.1575 18.9877C32.8551 16.3222 31.8059 13.7962 30.1308 11.7008ZM19 31.6667C12.8725 31.6667 7.91667 26.7108 7.91667 20.5833C7.91667 14.4558 12.8725 9.50001 19 9.50001C25.1275 9.50001 30.0833 14.4558 30.0833 20.5833C30.0833 26.7108 25.1275 31.6667 19 31.6667Z" fill="#2A636D"/>
</svg>
