<svg width="36" height="43" viewBox="0 0 36 43" fill="none" xmlns="http://www.w3.org/2000/svg">
<ellipse cx="19" cy="26" rx="17" ry="17" fill="#5BC9BC" fill-opacity="0.32"/>
<path d="M17.202 33.5417C17.0329 33.5415 16.8651 33.5119 16.7062 33.4542C16.3996 33.3419 16.1395 33.13 15.9676 32.8523C15.7957 32.5747 15.722 32.2474 15.7583 31.9229L16.8812 21.5833H8.29159C8.02665 21.5837 7.76661 21.512 7.5394 21.3757C7.31219 21.2395 7.12638 21.0439 7.00194 20.81C6.8775 20.5761 6.81912 20.3127 6.83308 20.0482C6.84704 19.7836 6.93281 19.5278 7.08117 19.3083L18.5874 2.1C18.7694 1.8307 19.0361 1.62991 19.3453 1.52951C19.6544 1.42911 19.9882 1.43486 20.2937 1.54583C20.5873 1.65486 20.8381 1.85556 21.0088 2.11821C21.1796 2.38087 21.2612 2.69152 21.2416 3.00417L20.1187 13.4167H28.7083C28.9732 13.4163 29.2332 13.488 29.4604 13.6243C29.6877 13.7605 29.8735 13.9561 29.9979 14.19C30.1223 14.4239 30.1807 14.6873 30.1668 14.9518C30.1528 15.2164 30.067 15.4722 29.9187 15.6917L18.4124 32.9C18.2786 33.0979 18.0983 33.2599 17.8873 33.3718C17.6762 33.4837 17.4409 33.542 17.202 33.5417ZM11.0187 18.6667H18.4999C18.7034 18.6671 18.9046 18.7102 19.0904 18.7931C19.2763 18.876 19.4427 18.9968 19.5791 19.1479C19.7167 19.301 19.8203 19.4816 19.8832 19.6776C19.946 19.8737 19.9666 20.0808 19.9437 20.2854L19.2874 26.3375L25.9812 16.3333H18.4999C18.2941 16.3346 18.0904 16.2923 17.9021 16.2092C17.7139 16.126 17.5453 16.004 17.4076 15.8511C17.2698 15.6982 17.166 15.5179 17.1029 15.322C17.0399 15.1262 17.0189 14.9191 17.0416 14.7146L17.6978 8.6625L11.0187 18.6667Z" fill="#2A636D"/>
</svg>
