<svg width="24" height="24" viewBox="0 0 24 24" fill="none" xmlns="http://www.w3.org/2000/svg">
<path d="M13 2C12.7348 2 12.4804 2.10536 12.2929 2.29289C12.1054 2.48043 12 2.73478 12 3V11C12 11.2652 12.1054 11.5196 12.2929 11.7071C12.4804 11.8946 12.7348 12 13 12H21C21.2652 12 21.5196 11.8946 21.7071 11.7071C21.8946 11.5196 22 11.2652 22 11C22 8.61305 21.0518 6.32387 19.364 4.63604C17.6761 2.94821 15.3869 2 13 2ZM14 10V4.07C15.4962 4.28561 16.8824 4.97978 17.9513 6.04868C19.0202 7.11759 19.7144 8.50379 19.93 10H14Z" fill="#2A636D"/>
<path d="M20.8198 14.06C20.6958 14.0156 20.5642 13.9963 20.4326 14.0029C20.301 14.0096 20.172 14.0422 20.053 14.0989C19.9341 14.1556 19.8275 14.2352 19.7395 14.3332C19.6514 14.4312 19.5835 14.5457 19.5398 14.67C19.0892 15.9439 18.3232 17.0829 17.3133 17.9808C16.3034 18.8786 15.0826 19.506 13.7647 19.8045C12.4468 20.1029 11.0747 20.0626 9.7766 19.6874C8.47845 19.3123 7.29649 18.6144 6.34099 17.6589C5.38549 16.7034 4.68759 15.5214 4.3124 14.2232C3.93721 12.9251 3.89695 11.5531 4.19539 10.2352C4.49383 8.91724 5.12124 7.6964 6.01908 6.68652C6.91691 5.67665 8.05593 4.91065 9.32985 4.46C9.58047 4.37248 9.78607 4.18898 9.90141 3.94987C10.0167 3.71076 10.0324 3.43563 9.94485 3.185C9.85732 2.93437 9.67383 2.72877 9.43472 2.61344C9.19561 2.4981 8.92048 2.48248 8.66985 2.57C7.07689 3.13278 5.65248 4.08996 4.52956 5.35222C3.40664 6.61448 2.62183 8.14065 2.24837 9.78831C1.8749 11.436 1.92497 13.1514 2.39389 14.7744C2.8628 16.3975 3.73529 17.8753 4.92991 19.0699C6.12453 20.2646 7.60234 21.137 9.22541 21.606C10.8485 22.0749 12.5639 22.1249 14.2115 21.7515C15.8592 21.378 17.3854 20.5932 18.6476 19.4703C19.9099 18.3474 20.8671 16.923 21.4298 15.33C21.5163 15.0807 21.5007 14.8072 21.3865 14.5693C21.2722 14.3314 21.0685 14.1484 20.8198 14.06Z" fill="#2A636D"/>
</svg>
