<svg width="15" height="15" viewBox="0 0 15 15" fill="none" xmlns="http://www.w3.org/2000/svg">
<g clip-path="url(#clip0)">
<path d="M14.4291 6.94917L9.21391 1.72866C9.06504 1.57964 8.86662 1.49785 8.65505 1.49785C8.44325 1.49785 8.24495 1.57976 8.09608 1.72866L7.62257 2.20275C7.47382 2.35154 7.39187 2.55027 7.39187 2.76216C7.39187 2.97394 7.47382 3.17937 7.62257 3.32816L10.6651 6.38035H0.998922C0.563106 6.38035 0.21875 6.72188 0.21875 7.15824V7.82847C0.21875 8.26484 0.563106 8.64079 0.998922 8.64079H10.6996L7.62269 11.71C7.47394 11.8591 7.39199 12.0524 7.39199 12.2643C7.39199 12.4759 7.47394 12.6721 7.62269 12.821L8.09619 13.2935C8.24507 13.4426 8.44337 13.5238 8.65517 13.5238C8.86674 13.5238 9.06516 13.4415 9.21403 13.2925L14.4293 8.0721C14.5785 7.92261 14.6606 7.72306 14.66 7.51093C14.6604 7.29809 14.5785 7.09842 14.4291 6.94917Z" fill="#5BC9BC"/>
</g>
<defs>
<clipPath id="clip0">
<rect width="14.4412" height="14.4555" fill="white" transform="translate(0.21875 0.283058)"/>
</clipPath>
</defs>
</svg>
