<svg width="16" height="16" viewBox="0 0 16 16" fill="none" xmlns="http://www.w3.org/2000/svg">
<g clip-path="url(#clip0)">
<path d="M7.37568 12.4447L0.255608 5.3245C0.0907959 5.15982 -7.16833e-08 4.93999 -6.14371e-08 4.70558C-5.1191e-08 4.47118 0.090796 4.25134 0.255608 4.08666L0.779831 3.56231C1.12142 3.22111 1.6766 3.22111 2.01767 3.56231L7.99668 9.54132L13.9823 3.55567C14.1471 3.39099 14.3668 3.30006 14.6011 3.30006C14.8357 3.30006 15.0554 3.39099 15.2203 3.55567L15.7444 4.08003C15.9092 4.24484 16 4.46454 16 4.69895C16 4.93335 15.9092 5.15319 15.7444 5.31787L8.61782 12.4447C8.45248 12.6098 8.23174 12.7004 7.99707 12.6999C7.7615 12.7004 7.54088 12.6098 7.37568 12.4447Z" fill="#5BC9BC"/>
</g>
<defs>
<clipPath id="clip0">
<rect width="16" height="16" fill="white" transform="matrix(-4.37114e-08 1 1 4.37114e-08 0 0)"/>
</clipPath>
</defs>
</svg>
