<svg width="60" height="60" viewBox="0 0 151 151" fill="none" xmlns="http://www.w3.org/2000/svg">
<rect width="151" height="151" rx="13" fill="#5BC9BC"/>
<path d="M52.3639 45.4456H95.0573V58.3884H66.3853V71.3313H92.9002V84.2742H66.3853V109.081H52.3639V45.4456Z" fill="white"/>
<path d="M96.475 101.352C96.475 100.213 96.6848 99.1345 97.1042 98.1158C97.5237 97.0972 98.0929 96.2283 98.8119 95.5093C99.5909 94.7303 100.49 94.1311 101.508 93.7117C102.527 93.2922 103.606 93.0825 104.744 93.0825C105.883 93.0825 106.961 93.2922 107.98 93.7117C108.998 94.1311 109.867 94.7303 110.586 95.5093C111.365 96.2283 111.965 97.0972 112.384 98.1158C112.803 99.1345 113.013 100.213 113.013 101.352C113.013 102.49 112.803 103.569 112.384 104.587C111.965 105.606 111.365 106.505 110.586 107.284C109.867 108.003 108.998 108.572 107.98 108.991C106.961 109.411 105.883 109.621 104.744 109.621C103.606 109.621 102.527 109.411 101.508 108.991C100.49 108.572 99.5909 108.003 98.8119 107.284C98.0929 106.505 97.5237 105.606 97.1042 104.587C96.6848 103.569 96.475 102.49 96.475 101.352Z" fill="#D5E9A2"/>
</svg>
