<svg width="26" height="26" viewBox="0 0 26 26" fill="none" xmlns="http://www.w3.org/2000/svg">
<g clip-path="url(#clip0)">
<path d="M13 0C10.4885 0 8.44525 2.04329 8.44525 4.55472V13.5064C8.44525 16.0175 10.4885 18.0608 13 18.0608C15.5114 18.0608 17.5547 16.0317 17.5547 13.5377V4.55472C17.5547 2.04329 15.5114 0 13 0ZM15.6566 13.5374C15.6566 14.9848 14.4648 16.1627 13 16.1627C11.5352 16.1627 10.343 14.9712 10.343 13.5061V4.55472C10.343 3.08963 11.5349 1.8978 13 1.8978C14.4651 1.8978 15.6569 3.08963 15.6566 4.55472V13.5374Z" fill="#5BC9BC"/>
<path d="M13.9489 20.781H12.0511V25.0511H13.9489V20.781Z" fill="#5BC9BC"/>
<path d="M15.4988 24.1022H10.5012C9.97709 24.1022 9.55231 24.527 9.55231 25.0511C9.55231 25.5752 9.97709 26 10.5012 26H15.4988C16.0229 26 16.4477 25.5752 16.4477 25.0511C16.4477 24.527 16.0229 24.1022 15.4988 24.1022Z" fill="#5BC9BC"/>
<path d="M20.1801 11.9246C19.6559 11.9246 19.2312 12.3494 19.2312 12.8735V13.6326C19.2312 17.0683 16.4357 19.8638 13 19.8638C9.56403 19.8638 6.76883 17.0683 6.76883 13.6326V12.8735C6.76883 12.3494 6.34404 11.9246 5.81993 11.9246C5.29582 11.9246 4.87103 12.3494 4.87103 12.8735V13.6326C4.87103 18.1149 8.51768 21.7616 13 21.7616C17.4823 21.7616 21.129 18.1149 21.129 13.6326V12.8735C21.129 12.3494 20.7042 11.9246 20.1801 11.9246Z" fill="#5BC9BC"/>
</g>
<defs>
<clipPath id="clip0">
<rect width="26" height="26" fill="white"/>
</clipPath>
</defs>
</svg>
